<?xml version="1.0" encoding="utf-8"?>
<!-- Generator: Adobe Illustrator 19.0.0, SVG Export Plug-In . SVG Version: 6.00 Build 0)  -->
<svg version="1.1" id="layer" xmlns="http://www.w3.org/2000/svg" xmlns:xlink="http://www.w3.org/1999/xlink" x="0px" y="0px"
	 viewBox="-153 -46 652 652" style="enable-background:new -153 -46 652 652;" xml:space="preserve">
<style type="text/css">
	.st0{fill:#231815;}
	.st1{fill:#E62310;}
</style>
<g>
	<path class="st0" d="M-29.1,240.1c10.2,0.3,9.4-5,9.4-10.3v-42.9c0-7.4,0.1-10.3-9.5-10.3c-10.4,0-10.5,2.6-10.2,12l1.1,38.7
		C-38.1,235.9-38.5,239.8-29.1,240.1 M-56.5,243v-3c8.7-0.9,9.1-1.4,9-12.7l-0.3-43.6h-0.4l-26.1,58.6h-2.1l-23.9-57.1h-0.2
		l-1.6,30.4c-0.4,8.8-0.4,13.5-0.3,17.7c0.2,5.1,2.8,5.9,9.8,6.6v3h-24.9v-3c6.2-0.7,8.3-1.9,9.1-6.4c0.5-3.7,1.2-8.4,2-19.6
		l1.5-22.2c1-13.9,0.4-14.3-9.3-15.3v-3h17.5l24.4,53.4l24.7-53.4H1.2c13.6,0,23.6,2.8,30.2,9.1c5.2,5.1,9,12.9,9,23
		c0,12.8-4.9,22.3-13.2,28.5c-8,6.2-18.6,8.9-31.7,8.9H-56.5z M-10.6,229c0,8.1,3.5,10.2,11.3,10.2c20,0,29.2-15,29.2-32.1
		c0-11-4.1-20.5-12.6-25.5c-4.8-3.1-11-4.4-18.2-4.4c-4.5,0-7.3,0.5-8.3,1.3c-1.1,0.7-1.4,1.9-1.4,6.1V229z"/>
	<path class="st0" d="M81.5,183.3h-0.2c-3.6,9.6-7.2,19.3-10.5,28.5h20.5L81.5,183.3z M119,239.8c6.9,0,7.6-1.7,7.6-8.9v-24.1
		c0-7.5-0.7-7.8-7-9v-2.7c5.6-1,11.1-2.4,16.2-4.8v9.3c2.3-1.7,4.9-3.5,7.8-5.5c3.3-2.1,6.3-3.5,9.7-3.5c9.2,0,15,6.4,15,17.7v22.5
		c0,7.9,0.6,8.4,7.3,9.1v3h-24.2v-3c6.9-0.7,7.7-1.6,7.7-9.7v-19.5c0-8.1-2.8-13.3-10.6-13.3c-4.7,0-9.2,2.9-12.7,5.9v27.4
		c0,7.9,0.7,8.4,7.6,9.1v3H92.5v-3.1c7-0.9,8.1-1.8,6.6-6.1c-1.5-4.4-3.7-10.4-6.1-17.2H69.1c-1.8,5-3.5,9.7-4.9,14.4
		c-2.5,7-1.5,8.2,6.9,8.9v3.1H46.9v-3.1c7-1,8.6-1.7,12.5-11.5l23.1-58.7l3.5-1c6.9,19.2,14.4,40.4,21.6,59.9
		C109.8,234.8,111.6,239.8,119,239.8"/>
	<path class="st0" d="M231.8,240c-2.6,0.5-11.3,2-18.1,4.4v-7.6l-7.1,4.2c-4.6,2.7-7.7,3.4-9.1,3.4c-9.3,0-21.6-8.5-21.6-24.8
		c0-16.2,14.2-28.9,30.1-28.9c1.6,0,5,0.4,7.7,1.3v-10c0-7.7-0.6-8.1-9-8.6v-2.8c6.1-0.8,13.9-2.6,18.2-4.1v63.2
		c0,6.1,0.8,6.6,5.1,7.1l3.7,0.3V240z M213.8,200.9c-2.8-4.1-7.6-5.9-12-5.9c-5.4,0-15.2,4.5-15.2,21.4c0,13.9,8.5,20.6,16,20.6
		c4.2,0,8.4-1.9,11.2-4V200.9z"/>
	<path class="st0" d="M272.9,233.1c-7.3,9.2-15.4,11.3-19,11.3c-14.3,0-22.7-11.7-22.7-24.8c0-8,2.9-15.2,7.7-20.4
		c4.8-5.4,11.1-8.5,17-8.5h0.1c9.7,0,17.5,8.6,17.5,17.7c0,2.3-0.6,3.3-2.7,3.7c-2,0.3-16.6,1.5-30.4,2c0.1,15.9,9.2,22.4,17.4,22.4
		c4.7,0,9.1-1.9,13.3-5.8L272.9,233.1z M253.1,195c-5.2,0-10.4,4.9-12.1,14.3c6.5,0,12.9-0.1,19.7-0.4c2.1,0,2.8-0.7,2.8-2.3
		c0.1-6.1-3.8-11.7-10.3-11.7H253.1z"/>
	<path class="st0" d="M293.2,203c3.5-5.8,8.5-12.4,14.1-12.4c4,0,6.8,3,6.8,5.8c0,2.3-1.5,4.7-3.7,5.7c-1.4,0.6-2.4,0.5-3.1-0.2
		c-1.6-1.7-3-2.4-4.9-2.4c-3,0-6.8,3.5-9.3,10v21.3c0,7.7,0.6,8.4,9.6,9.1v3h-26.8v-3c7.2-0.7,8.1-1.4,8.1-9.1v-24.1
		c0-7.7-0.6-8.2-7.2-9.1v-2.6c5.7-0.9,10.8-2.3,16.4-4.8V203H293.2z"/>
	<path class="st0" d="M344.7,205.8c-2.2-6.9-6.3-11.5-12-11.5c-4.4,0-7.6,3.5-7.6,8.1c0,5.1,4.7,7.9,9.9,10.1
		c8.7,3.6,14.7,7.8,14.7,15.9c0,10.6-9.9,16.1-19.2,16.1c-5.9,0-11.3-2.2-13.4-4c-0.8-1.6-1.9-9.6-1.9-13.8l3-0.6
		c2.1,7.7,7.3,14.5,14.3,14.5c4.3,0,8.3-3.3,8.3-8.2c0-5.1-3.4-7.9-9.2-10.6c-7-3.3-14.6-7.1-14.6-16.1c0-8.2,7-15,17.7-15
		c4.8-0.1,7.9,1,10.4,2c0.9,2.7,2.2,9.6,2.6,12.5L344.7,205.8z"/>
	<path class="st0" d="M380.7,190.7c14.3,0,25.2,11.5,25.2,26c0,18.8-13.8,27.7-25.3,27.7c-16,0-25.5-12.8-25.5-25.8
		c0-19.2,14.9-28,25.5-28H380.7z M379.3,194.5c-7.1,0-13.4,7.2-13.4,20.4c0,14.7,6.4,25.6,16,25.6c7.2,0,13.2-5.4,13.2-21.3
		c0-13.6-5.5-24.7-15.6-24.7H379.3z"/>
	<path class="st0" d="M439.5,243v-3c6.9-0.7,7.7-1.6,7.7-9.7v-19.5c0-8.1-2.8-13.3-10.6-13.3c-4.7,0-9.2,2.9-12.7,5.9v27.4
		c0,7.9,0.7,8.4,7.6,9.1v3h-25.3v-3c7.9-0.8,8.5-1.4,8.5-9.1v-24.1c0-7.5-0.7-7.8-7-9v-2.7c5.6-1,11.1-2.4,16.2-4.8v9.3
		c2.3-1.7,4.9-3.5,7.8-5.5c3.3-2.1,6.3-3.5,9.7-3.5c9.2,0,15,6.4,15,17.7v22.5c0,7.9,0.6,8.4,7.3,9.1v3H439.5z"/>
	<path class="st0" d="M-52.8,310.1c-1.6,5.1-4.3,13.3-6.3,17c-3.1,0.8-12.5,3-20.5,3c-27.7,0-39.8-19.1-39.8-36.8
		c0-23.4,18-38.8,42.8-38.8c9,0,16.6,2.4,19.7,3c0.9,6.3,1.6,10.8,2.2,16.8l-3.3,0.8c-2.9-11.8-9.6-16.6-21.6-16.6
		c-18.6,0-28.5,15.7-28.5,32.6c0,20.8,12.2,35,29.1,35c11.3,0,17.4-6.1,22.9-17.2L-52.8,310.1z"/>
	<path class="st0" d="M-14.3,329.8c-1.7,0-4.2-1-5.5-2.2c-1.5-1.6-2.2-3.2-2.8-5.2c-4.6,3.1-10.2,7.4-13.7,7.4
		c-8.2,0-13.9-6.8-13.9-14.2c0-5.7,3-9.3,9.4-11.5c7-2.3,15.4-5.5,18-7.5v-2.1c0-8.4-3.9-13.1-9.8-13.1c-2.3,0-4.1,0.9-5.2,2.3
		c-1.5,1.5-2.5,4.1-3.5,7.5c-0.5,2-1.7,2.8-3.4,2.8c-2.1,0-5.1-2.3-5.1-5c0-1.7,1.5-3,3.7-4.7c3.2-2.3,10.8-6.8,17.4-8.1
		c3.5,0,7,1,9.5,3.1c4.1,3.4,5.2,8.1,5.2,14.2v21.6c0,5.2,2.1,7,4.1,7c1.4,0,3-0.6,4.2-1.3l1.2,3L-14.3,329.8z M-22.8,300.6
		c-2.4,1.3-8,3.7-10.4,4.9c-4.5,2.1-7.1,4.3-7.1,8.5c0,6,4.6,8.9,8.2,8.9c3-0.1,7.1-2.1,9.3-4.2V300.6z"/>
	<path class="st0" d="M28.2,328.4v-3c6.8-0.7,7.7-1.6,7.7-9.6v-19.4c0-8-2.8-13.2-10.6-13.2c-4.6,0-9.2,2.9-12.6,5.9v27.3
		c0,7.9,0.7,8.3,7.5,9v3H-4.9v-3c7.9-0.8,8.5-1.4,8.5-9v-24c0-7.4-0.7-7.8-7-8.9v-2.7c5.6-1,11-2.4,16.1-4.8v9.3
		c2.3-1.7,4.9-3.5,7.8-5.5c3.3-2.1,6.3-3.5,9.6-3.5c9.2,0,15,6.4,15,17.6v22.4c0,7.9,0.6,8.3,7.3,9v3H28.2z"/>
	<path class="st0" d="M95.1,318c-5.1,6.7-12.9,11.8-19.7,11.8c-14.6,0-23.2-11.8-23.2-24.3c0-8.9,3.8-16.7,11.6-22.7
		c6-4.6,13-6.5,17.4-6.5h0.1c4.6,0,8.5,1.5,10.3,3c1.5,1.3,1.9,2.3,1.9,3.6c0,2.4-2.6,5-3.8,5c-0.6,0-1.2-0.3-2.2-1.3
		c-3.5-3.2-7.5-4.7-11.6-4.7c-7.7,0-14.4,6.4-14.4,18.6c0,16.1,11,21.5,17.5,21.5c5,0,8.8-1.4,14.2-6.4L95.1,318z"/>
	<path class="st0" d="M139.3,318.6c-7.3,9.2-15.3,11.3-18.9,11.3c-14.3,0-22.6-11.6-22.6-24.7c0-8,2.9-15.1,7.7-20.3
		c4.8-5.3,11-8.5,16.9-8.5h0.1c9.6,0,17.4,8.6,17.4,17.6c0,2.3-0.6,3.3-2.7,3.7c-2,0.3-16.5,1.5-30.3,2c0.1,15.8,9.2,22.3,17.3,22.3
		c4.6,0,9.1-1.9,13.2-5.8L139.3,318.6z M119.6,280.6c-5.2,0-10.3,4.9-12.1,14.3c6.5,0,12.9-0.1,19.6-0.4c2.1,0,2.8-0.7,2.8-2.3
		c0.1-6-3.8-11.6-10.2-11.6H119.6z"/>
	<path class="st0" d="M160.6,288.6c3.5-5.8,8.5-12.3,14-12.3c3.9,0,6.7,3,6.7,5.8c0,2.3-1.5,4.6-3.7,5.7c-1.4,0.6-2.4,0.5-3.1-0.2
		c-1.6-1.8-3-2.4-4.9-2.4c-3,0-6.7,3.5-9.3,10v21.2c0,7.7,0.6,8.3,9.5,9v3h-26.7v-3c7.2-0.7,8-1.4,8-9v-24c0-7.7-0.6-8.1-7.2-9.1
		v-2.6c5.7-0.9,10.8-2.3,16.4-4.8v12.6H160.6z"/>
	<path class="st0" d="M261.4,310.1c-1.6,5.1-4.3,13.3-6.3,17c-3.1,0.8-12.5,3-20.5,3c-27.7,0-39.8-19.1-39.8-36.8
		c0-23.4,18-38.8,42.8-38.8c9,0,16.6,2.4,19.7,3c0.9,6.3,1.6,10.8,2.2,16.8l-3.3,0.8c-2.9-11.8-9.6-16.6-21.6-16.6
		c-18.6,0-28.5,15.7-28.5,32.6c0,20.8,12.2,35,29.1,35c11.3,0,17.3-6.1,22.9-17.2L261.4,310.1z"/>
	<path class="st0" d="M299.2,318.6c-7.3,9.2-15.3,11.3-18.9,11.3c-14.3,0-22.6-11.6-22.6-24.7c0-8,2.9-15.1,7.7-20.3
		c4.8-5.3,11-8.5,16.9-8.5h0.1c9.6,0,17.4,8.6,17.4,17.6c0,2.3-0.6,3.3-2.7,3.7c-2,0.3-16.5,1.5-30.3,2c0.1,15.8,9.2,22.3,17.3,22.3
		c4.6,0,9-1.9,13.2-5.8L299.2,318.6z M279.5,280.6c-5.2,0-10.3,4.9-12.1,14.3c6.5,0,12.9-0.1,19.6-0.4c2.1,0,2.8-0.7,2.8-2.3
		c0.1-6-3.8-11.6-10.2-11.6H279.5z"/>
	<path class="st0" d="M334.7,328.4v-3c6.8-0.7,7.7-1.6,7.7-9.6v-19.4c0-8-2.8-13.2-10.6-13.2c-4.6,0-9.2,2.9-12.6,5.9v27.3
		c0,7.9,0.7,8.3,7.5,9v3h-25.2v-3c7.9-0.8,8.5-1.4,8.5-9v-24c0-7.4-0.7-7.8-7-8.9v-2.7c5.6-1,11-2.4,16.1-4.8v9.3
		c2.3-1.7,4.9-3.5,7.8-5.5c3.3-2.1,6.3-3.5,9.6-3.5c9.2,0,15,6.4,15,17.6v22.4c0,7.9,0.6,8.3,7.3,9v3H334.7z"/>
	<path class="st0" d="M379.7,328.3c-2,1-3.8,1.5-4.9,1.5c-7.3,0-11.4-4.6-11.4-13.8v-33.8h-8l-0.5-1.2l3.1-3.4h5.3v-8.5l7.5-7.7
		l1.6,0.2v15.9h13.1c1,1.2,0.7,3.7-0.7,4.5h-12.4v29.8c0,9.4,3.8,11.1,6.7,11.1c2.9,0,5.6-1.2,7.2-2l1,3L379.7,328.3z"/>
	<path class="st0" d="M427.7,318.6c-7.3,9.2-15.3,11.3-18.9,11.3c-14.3,0-22.6-11.6-22.6-24.7c0-8,2.9-15.1,7.7-20.3
		c4.8-5.3,11-8.5,16.9-8.5h0.1c9.6,0,17.4,8.6,17.4,17.6c0,2.3-0.6,3.3-2.7,3.7c-2,0.3-16.5,1.5-30.3,2c0.1,15.8,9.2,22.3,17.3,22.3
		c4.6,0,9.1-1.9,13.2-5.8L427.7,318.6z M407.9,280.6c-5.2,0-10.3,4.9-12.1,14.3c6.5,0,12.9-0.1,19.6-0.4c2.1,0,2.8-0.7,2.8-2.3
		c0.1-6-3.8-11.6-10.2-11.6H407.9z"/>
	<path class="st0" d="M448.2,288.6c3.5-5.8,8.5-12.3,14-12.3c3.9,0,6.7,3,6.7,5.8c0,2.3-1.5,4.6-3.7,5.7c-1.4,0.6-2.4,0.5-3.1-0.2
		c-1.6-1.8-3-2.4-4.9-2.4c-3,0-6.7,3.5-9.3,10v21.2c0,7.7,0.6,8.3,9.5,9v3h-26.7v-3c7.2-0.7,8-1.4,8-9v-24c0-7.7-0.6-8.1-7.2-9.1
		v-2.6c5.7-0.9,10.8-2.3,16.4-4.8v12.6H448.2z"/>
	<polygon class="st0" points="-115.7,133.8 -108.7,133.8 -108.6,153.8 -105.1,153.8 -105.1,133.8 -98.2,133.8 -98.2,130.5 
		-115.7,130.5 	"/>
	<polygon class="st0" points="-78.8,140 -89.1,140 -89.1,130.5 -92.6,130.5 -92.6,153.8 -89.1,153.8 -89.1,143.4 -78.8,143.4 
		-78.8,153.8 -75.3,153.8 -75.3,130.5 -78.8,130.5 	"/>
	<polygon class="st0" points="-63.5,143.4 -53,143.4 -53,140.1 -63.5,140.1 -63.5,133.8 -52.5,133.8 -52.5,130.5 -67,130.5 
		-67,153.8 -52.1,153.8 -52.1,150.4 -63.5,150.4 	"/>
	<path class="st0" d="M-18.9,145.3c-0.1,3.5-2,5.6-5.2,5.6c-3.2,0-5.1-2-5.2-5.5v-14.8h-3.5v14.9c0.1,5.5,3.4,8.9,8.7,8.9
		c5.3,0,8.7-3.4,8.7-8.9v-14.9h-3.5V145.3z"/>
	<polygon class="st0" points="7.1,147.7 -3.7,130.5 -7.2,130.5 -7.2,153.8 -3.7,153.8 -3.7,136.8 6.9,153.8 10.6,153.8 10.6,130.5 
		7.1,130.5 	"/>
	<rect x="19.5" y="130.4" class="st0" width="3.5" height="23.4"/>
	<polygon class="st0" points="38.5,148.7 32.1,130.5 28.3,130.5 36.8,153.8 40.1,153.8 48.5,130.5 44.9,130.5 	"/>
	<polygon class="st0" points="57.2,143.4 67.7,143.4 67.7,140.1 57.2,140.1 57.2,133.8 68.1,133.8 68.1,130.5 53.6,130.5 
		53.6,153.8 68.6,153.8 68.6,150.4 57.2,150.4 	"/>
	<path class="st0" d="M91.5,148.8c-0.1-0.7-0.1-1.5-0.2-2.4c-0.2-1.8-0.6-3.8-2.3-4.8c1.8-1,2.8-2.7,2.8-4.7c0-2.4-0.9-4.2-2.6-5.2
		c-1.9-1.2-3.7-1.3-5.5-1.3h-7.9v23.3h3.5v-10.4H84c3.3,0,3.5,0.2,3.9,5.1c0.1,1.6,0.2,3.2,0.8,4.7l0.2,0.5h4.3l-0.8-1.2
		C91.8,151.7,91.7,150.7,91.5,148.8 M79.4,133.8l4.5,0c2.7,0,4.3,0.5,4.3,3.1c0,2.6-1.9,3.1-5.4,3.1h-3.4V133.8z"/>
	<path class="st0" d="M107.1,140.4c-3.2-1-5.2-1.8-5.2-4.1c0-2.2,2.6-3,4.3-3c2.6,0,3.9,0.9,3.9,2.6l0,0.8h3.8l-0.1-0.9
		c-0.4-3.7-3.3-5.9-7.9-5.9c-3.7,0-7.7,2.3-7.7,6.6c0,4.8,4.8,6.3,8.2,7.4c0.4,0.1,0.8,0.3,1.2,0.4c2,0.6,2.9,1.6,2.9,3
		c0,2.5-2.7,3.4-4.4,3.4c-4.1,0-4.6-2-4.7-3.5l0-0.8h-3.7l0,0.8c0.1,3.9,3.2,6.9,7.2,6.9c5.9,0,9.2-2.5,9.2-6.9
		C114.2,142.8,110.2,141.5,107.1,140.4"/>
	<rect x="121.4" y="130.4" class="st0" width="3.5" height="23.4"/>
	<polygon class="st0" points="130.1,133.8 137.1,133.8 137.1,153.8 140.6,153.8 140.7,133.8 147.6,133.8 147.6,130.5 130.1,130.5 	
		"/>
	<polygon class="st0" points="160.4,140.3 154.1,130.5 149.8,130.5 158.4,143.8 158.4,153.8 162,153.8 162,143.8 170.6,130.5 
		166.6,130.5 	"/>
	<path class="st0" d="M195.4,130c-6.5,0-10.5,4.6-10.5,12.1c0,7.5,4,12.1,10.5,12.1c6.5,0,10.5-4.6,10.5-12.1
		C205.9,134.7,201.9,130,195.4,130 M195.4,150.8c-5,0-6.8-4.5-6.8-8.7c0-4.2,1.8-8.7,6.8-8.7c5,0,6.8,4.5,6.8,8.7
		C202.2,146.3,200.5,150.8,195.4,150.8"/>
	<polygon class="st0" points="213,153.8 216.5,153.8 216.5,143.3 226.5,143.3 226.5,139.9 216.5,139.9 216.5,133.8 226.8,133.8 
		226.8,130.5 213,130.5 	"/>
	<polygon class="st0" points="242.5,133.8 249.5,133.8 249.5,153.8 253,153.8 253,133.8 259.9,133.8 259.9,130.5 242.5,130.5 	"/>
	<polygon class="st0" points="269.9,143.4 280.4,143.4 280.4,140.1 269.9,140.1 269.9,133.8 280.8,133.8 280.8,130.5 266.3,130.5 
		266.3,153.8 281.3,153.8 281.3,150.4 269.9,150.4 	"/>
	<polygon class="st0" points="307.1,130.5 302.9,130.5 297,139 291.2,130.5 286.8,130.5 294.7,141.8 286.4,153.8 290.5,153.8 
		296.7,144.7 302.9,153.8 307.3,153.8 299,141.8 	"/>
	<path class="st0" d="M319.1,130.5l-9.2,23.3h3.7l2.3-5.9h9.7l2.3,5.9h3.8l-9.3-23.3H319.1z M317.1,144.5l3.6-9.3l3.6,9.3H317.1z"/>
	<path class="st0" d="M344.4,140.4c-3.2-1-5.2-1.8-5.2-4.1c0-2.2,2.6-3,4.3-3c2.6,0,3.9,0.9,3.9,2.6l0,0.8h3.8l-0.1-0.9
		c-0.4-3.7-3.3-5.9-7.9-5.9c-3.7,0-7.7,2.3-7.7,6.6c0,4.8,4.8,6.3,8.2,7.4c0.4,0.1,0.8,0.3,1.2,0.4c2,0.7,2.9,1.6,2.9,3
		c0,2.5-2.7,3.4-4.5,3.4c-4.1,0-4.6-2-4.7-3.5l0-0.8H335l0,0.8c0.1,3.9,3.2,6.9,7.3,6.9c5.9,0,9.2-2.5,9.2-6.9
		C351.5,142.8,347.5,141.5,344.4,140.4"/>
	<path class="st1" d="M120.2,299.5c3.8,0.6,4-0.4,8,0c0.6,0.2,0.6,0.7,1.3,0.7l1-0.3l0.1,0.4c0.5-0.2,3.3-0.1,2.9-0.6
		c4.9-0.1,8.1,0.1,12.6,1.2c0.7,0.2,2.4,0.1,3.1,0.3c0.6,0.1,4.3,0.5,4.9,0.7c3.4,0.8,5.7,0.7,7.8,1.4c2.2,0.9,4.3,1.4,6.8,1.4
		c4.8,2,9.3,3.9,14.1,4.9c0.7,0.1,1.4,0.3,2.1,0.9c0.3,0.2,1.1,0.9,1.5,0.7c0.3,0.4-0.1,1.1,0,1.4c0.3,0.8,0,1.4-1.3,1.5
		c-1.5-0.6-1.5,0.7-2.3,0.8c-3.8,0.5-7.6-2.1-11.4-0.9c-0.5,0.1,0.4-1.8-0.8-1.5c-4.6,2-10.9-0.5-15.8-3.2l0.4-0.5
		c-0.9-0.5-2.3,1.1-3.3,0.7c0-0.3,0.4-0.4,0.2-0.9c-0.4,1-1.9,0.2-2.5,1c-0.4-0.4-0.2-1.3-0.7-1.8l-0.7,1.1c-2,2.6-4-0.6-6.4,0.5
		c0.1-0.3,0.4-0.4,0.2-0.7c-3.8,1.3-8.3,0.5-12.3,0.7c0.2-0.4,0.4-1.1,0.2-1.6c-0.3,1.2-1.6,1.4-2.7,1.5c-0.4-1.3-2,1-3.2,0.2
		l0.1-0.3c-1.1,1.3-1.3-0.9-2.2,0.6l-0.5-1.1c-0.6,1.8-1.3-1.1-2.1-0.2l0,0.4c-0.8,0.4-1.1-0.6-1.8-0.3l0-0.2
		c-1.6,0.3-1.6,0.4-2.8,0c-0.5-1.2-1.7,0.5-2.4-1.2c-5.3,1-7.2,0-12.4-0.3c-0.6-0.6-0.9-0.8-1-1.3c-0.5,0.2-2,0.1-2.5,0.8
		c0.2,0-0.3-0.7-0.6-0.8c-0.9-0.6-1.2,1.5-2.2,0.8c0.4-0.3,0.6-0.8,0.5-1.3c-1,1-2.2,0.8-3.2,1.1c0.2-0.2,0.4-0.4,0.4-0.8
		c-1.2,1.2-2.1-0.4-3.2,0.3l0.4-0.8c-1.6-1.1-0.6,1.7-2,1c0.4-0.2,0.3-0.6,0.3-0.9c-1.4,1.4-3.5,0.8-4.9,1.2
		c0.1-0.1,0.1-0.3,0.1-0.3c-1.4,0.1-2.9-0.5-4.5,0.1c-0.6-0.4,0.3-2-1.2-1.8c0,1.6-2.6,0.5-1.8,2.4c-1.3-0.3-3.3-1-4.2-0.5
		c0.6-0.6-0.5-2,0.6-2.1l-0.8-1c0.1-0.7,0.8,0.3,0.6-0.6c-0.5,0-2.1,0.6-2.6,0.3c-1,1-2.1,2.8-3.7,2.9c0.8-0.6-0.4-1.8,0.2-2.1
		l-2.4,3c-0.5,0.1-0.1-1.3-0.9-0.9c0,0.4-0.3,0.7-0.6,1c-0.2-0.2-2.2,0.3-2.4-1.3c-0.2-0.6,0.9-0.3,0.3-0.9c-1,0-1.1,0.5-2.1,0.5
		l0-0.2c-0.7-0.3-2,0.6-1.3,1.5c0.4,0.1-0.1-1,0.5-0.5c-0.5,0.9-1.7,1.1-2.7,1.1c0.3-0.2,0.3-0.7,0.5-1.1l-3.5,1.1
		c-1.9-1.1-4,1.4-5.5-0.2c0.3-0.1,0.1,1.1,0.1,0.9c-0.9-0.1-0.8-1.2-1.5-0.8c0-0.7-0.8,0.2-1.4,0.4c-0.3,0.5-0.1-0.3,0.4-0.4
		c-0.9,0.5-4.3,1.5-6.3,0.5c0,0.4-1.3,1.6-1.7,1.5l0.2-1c-0.4-0.6-1.5,0.1-1.6-0.8l0.9,0.1c-0.9,0-1.8,1.2-2.7,0.2
		c0.3,0.2,0.8-1.4,0-1.3c-1.3,0.2-0.4,0.5-1.4,0.8l-0.7,0.4c-0.1,1-1.2-0.1-0.7,1c-0.2-0.8-1.9,0.5-1.8-1.2l0.2-1.3
		c-0.6,0.1-0.9,1.3-1.4,1.9c-0.1-0.1-0.2-0.4-0.2-0.6c-0.1,2-1.3-0.2-2,1.3c-1.2-0.7-3-0.1-3.6-1.3c-0.9,0.6-1.7,1.3-2.8,0.9
		c0.2-0.2,0.5-0.2,0.5-0.7c-0.7-0.6-0.8-0.1-1.4,0.3c0.1-0.3-1.3-1.1-2-1.8c-0.9,0.6-0.6,1.6-0.7,2.3c-0.9-1.9-2.6,1.3-3.6-0.5
		c0.3-0.3,1.3-1,0.6-1.4c-0.8-1.9-1.7,1.5-3,0.5l0.3,1.6c-0.6-1-2,1-1.8-0.7c-0.4,0.6-1.6-0.5-1.4,1.1c-2.2-1.3-5.3,0.8-6.7-2
		l-1-0.3c-1.5-1-1.6,2.7-3.5,2.1c0.1-0.7-0.1-0.9-0.6-0.8l-1.1,1.1c-1.2-0.3-0.7-1.5-0.7-2.6c-0.7,0.2-1.5,0.1-1.8,1l-0.8-1.4
		c0.6,1-0.5,0.7-0.9,0.9l0.3-0.3c-0.1-0.5-0.9-0.2-1.3,0c0.1,0.7,0.9,1,1.3,1.2c-0.3,0.5-0.9,0.4-1.3,0.9c0.1-1.1-1.1-0.8-1.6-0.9
		c-0.6-0.2-0.7,1-0.9,0.9c0-0.6-1-0.1-0.5-0.9c0.2-0.2-0.3,0.4,0-0.1c-0.4-0.4,0.4-1.2-0.4-0.5c-0.6,0.5,0.2,2.1-1,1.5
		c0.3-0.3,0.4-0.7,0.6-1.1l-1.1-0.6l0,1c-0.1-0.3,0-0.3-0.1-0.5c-0.3,1-1.7,0.3-1.9,1.5c-0.6,0.1-1.2-0.7-1.7-0.8l0.1-0.1
		c-0.7-0.6-1.5-0.2-2.1,0.5l0-0.2c-0.4-0.1-1.2,0.1-1.7,0.7c-0.9-0.7-0.3-3.7-1.3-2.5c-0.9,0-1.4,1.8-1.1,2.4
		c-1.7-0.7-3.5,0.9-5.1-0.6c-0.2,0.4-0.1,0.6-0.6,0.9c-2.4-0.4-5.1,1.2-7-0.8c0.7-0.4,0-1,0-1.5c-0.6,0.9-0.7-0.9-0.9,0.6
		c0.1,0.9,0,1.3,0.7,1.7c-1.4,0.5-3.6,0.5-4.4-0.4c0.4,0.4,0.1,0.7-0.2,1c0.1-1.4-1-1.6-1.8-1.1l-0.1,0.9l-0.5-0.9
		c-0.3,0.3-0.4,1.8-1.2,1l-0.2-0.9c-0.8,0.7-2,1.9-2.9,1.2l-0.7-1.3c-0.4,0.1-1,0.9-0.4,1.3c-1.6-0.8-2.5-0.9-3-2
		c-2.7,2.7-6.5,2.8-9.6,2.6l0.1-0.7c-0.8-0.6-0.4,1.1-1,0.7c0.3-0.6-0.6-1.3,0-2.1c-1.2-0.7-1.5,1.1-2.3,1.4
		c-0.1,0.9,0.6-0.5,0.5,0.5c-0.1,0.3-1.6-0.7-1.8,0.6c-0.3-0.5-0.1-1.4,0.1-2l-0.7,0.6c-0.9-1.5,2-2.7,1.1-4.5l-0.7,0.2l-0.6,1.1
		c-1.5,0.4-0.7,3.1-2.3,3c-0.4-0.8,1.3-0.2,1-1.2c-0.8-1-1.5,0.6-2.2,0.2c0.8,0.5,0.1,1.8-0.4,2c-0.8-0.6,0.5-1.2-0.6-1.3
		c-0.2,0.7-1.3,1.3-0.3,1.8c-0.4,1.7-1.2-0.5-1.9,0.8c-0.4-1.2,1.2-2.7-0.1-3.3c0.2,1.1-1.6,1.6-0.9,3.2c-0.5-0.3-0.6-1.2-0.2-1.9
		c-0.7-0.7-1.8,2.1-2-0.2l-0.2,1.2c-0.2-0.4-0.5-0.7-0.9-1.3c-0.6,0-2.1,1.6-2-0.2c-0.2,0.2-1.7,0.1-1.1,1.3c0.9,0.7,1-0.9,1.5,0.7
		c-0.6-1.3-1.3,0.2-1.8,0.6l-0.1-0.7c-0.3,0.3-1,0.1-1.2,0.9c0.2-0.4,0.1-0.9-0.1-1l-0.3,1c-1.3,0.5-0.3-1.8-1.5-1.5l0.9-0.8
		c-0.2,0.2-0.6-0.8-1.2-0.5c-0.2,1-0.7,2.1-0.8,2.8c-0.7,0.4-0.3-1.1-1-0.1l0.9-1.1c0.1-0.3-0.6-1.6-1.5-1.5
		c-0.6,0.3-1.5,1.7-0.6,2.2c-0.5,0-1.1-0.6-0.7-1.3c-1,0.3,0.1,1-0.8,1.6c-0.4-0.6-1.5-1.5-2.2-2.4l0.9-1.6l-0.6,0
		c0.8-1.3-1,0.2-0.6-1.1c-0.4-0.2-1,0.2-1.4,0.6c1.3,2.1-0.8,1.8-0.4,3.7c-1.7,0.5-0.5-4.6-2.3-1.6c0.3,0.5,0.7,0.3-0.1,1.3
		c-1.1-0.2-0.7,2-2,1.2c0.9-0.8-1-2,0.3-3.1c-0.1,0.7,0.8,0.5,1,0.3c-0.4-0.7,0.1-2-1-2c-0.7,0.2-1.6,0.2-1.4,1.3c0,1.1,1-0.1,0.6,1
		c-1.3,0.4-1.6-1.3-2.1,0.7c0.8-0.2,1.1,1,1,1.8l-1,0.5l0.2-0.7c-1.6-0.5-0.4,1.4-2,1.2l-0.7-1.5c0.4-1.3,2.2,0.5,1.9-1.5
		c-1-0.1-1.3,1-2.2,0.4l0.7-0.4c-0.4-0.1,0.6-2.2-0.8-0.6c-0.7,0.6-1.5,0.1-1.5,0.9c-1.6,0.3-2,1-3.1,1.2c0.2-1.5-1.8-0.1-0.7-1.7
		c0.5,0.9,1.9,0.5,2.5-0.9c-0.6-1.8,1.3-0.2,2.5-1.4c-1.3,0-1.2-1.8-1.5-2.9c-0.4-0.1-0.7,0.4-0.9,0.6c-0.1,1.1,0.3,1.1,0.4,2.2
		c-1.4-0.3-2.8,0.4-3.5,1.4c-0.5-0.5-0.4-1.6,0.2-1.7c-1.7,0.3-2.6,0.4-4.2,0.1c-1.2,0.2-2.3,1.7-3,0.8c-1.1,0.8,0-1-1.1-1
		c-1.1,0.8-1.6,0.1-2.8,0.5c-1.4-0.4-2.6-1.3-4-1.4c-0.5,0.1-0.6-0.4-0.9-0.4l-0.3-0.4l-0.3-0.3c0,0-0.3,0.1-0.3-1
		c0-1.1,0.2-1.3,0.2-1.3l-0.1-3.1c1-0.5,0.9-2.1,2.2-1.9c3-0.8,5.5,0,6,1.4c0.3,0.8,0.1,1.9,0.1,1.9c0.9-1.9,3,0.2,4.2-0.7
		c2.1,0.8,4.5-0.9,5.6,0.6c3.7-0.7,6.9-1.4,10.7-1.1l-0.6,1.3c0.7-1,0.4,0.7,1.1,0.5c-0.8-1,0.9-1.4,1.4-2.2c1.7,1,3.9-0.1,5.4-1
		l0.1,0.9c1.5-1.7,3.3-0.2,5.2,0c0.2,0.4,0.6,1.2,1.1,1.1c1-1.5,1.6-1.3,3.1-2.3c1.1,0,2.9,0.4,4,0.9c4.1-2,8.4-0.7,12.7-2l0.3,1.1
		c4.2-2.2,9.3-0.2,12.9-1.3l-0.4,1.8c1.1,0.6,2.5-0.5,2.3-1.7c1.1,0.6,2.8-0.9,3.5,0.6c1.1,0.3,1.4-0.8,2.4-1.1l4.7,0.1
		c-0.2,0.4-0.3,1.2,0.3,1.3c0.8-0.5,3,0.5,2.2-1.7c2.3,1.2,5.4-1,7.6,0.7c-0.2-0.6,0.4-0.7,0.6-1.1c2,0,4.1,1.2,5.8,0.2
		c0.3,0.3-0.5,1,0.3,1.1c0.5-0.2,0-0.8,0.6-1.1c3.3-1.1,6.6,1.1,9.6,0.8c5.3-1.1,10.8-0.6,15.8-0.8l-0.1,0.4c1.7-1.7,4,1.7,5.3-0.8
		c0.4,0.4,1.5,0.2,1.2,1c1.3-1.2,3.8,1.1,5.7-0.4c-0.2,0-0.3,0.1-0.5,0.2c2,0.9,3.7-0.4,5.8,0.5c-0.2,0.2-0.6,0.3-0.7,0.8
		c0.8,0.8,1.9-1.8,2.4,0.3c0.5,0,0.3-1.1,0-1c4.6,0.8,9.5-0.5,14.3-0.9c3.4,1.3,0.2,3.5,2.9,2c0.2,0.4,0.2-0.8,0.2-0.4
		c1-0.6,1.6,2.4,2.3,1.3c-0.3-1.3,0.5-0.7,0.5-1.5c2.1,0.9,2.5,2,4.1,1.1l-0.1,0.7c2-1.9,4.2-0.8,5.9-2.9c10.7-0.1,21-0.8,31.4-0.5
		c10.3,1,12.2-0.1,22.5,2c4.1,0.5,8.8,1.3,12.7,1.8L120.2,299.5z"/>
	<path class="st0" d="M-89.4,409.4v-1.2c3.5-0.4,3.7-0.6,3.6-5.1l-0.1-17.6h-0.2l-10.5,23.6h-0.9l-9.6-23h-0.1l-0.7,12.3
		c-0.2,3.5-0.2,5.4-0.1,7.1c0.1,2.1,1.1,2.4,4,2.7v1.2h-10v-1.2c2.5-0.3,3.4-0.8,3.7-2.6c0.2-1.5,0.5-3.4,0.8-7.9l0.6-8.9
		c0.4-5.6,0.2-5.8-3.7-6.1v-1.2h7.1l9.8,21.5l9.9-21.5h7.3v1.2c-3.8,0.3-4.1,0.4-4,4.9l0.4,15.6c0.1,4.6,0.3,4.8,4,5.1v1.2H-89.4z"
		/>
	<path class="st0" d="M-62.8,410c-0.7,0-1.6-0.4-2-0.8c-0.6-0.6-0.8-1.2-1-1.9c-1.7,1.2-3.8,2.7-5.1,2.7c-3,0-5.2-2.5-5.2-5.2
		c0-2.1,1.1-3.4,3.5-4.3c2.6-0.9,5.7-2,6.7-2.8v-0.8c0-3.1-1.5-4.9-3.6-4.9c-0.9,0-1.5,0.4-1.9,0.9c-0.6,0.6-0.9,1.5-1.3,2.8
		c-0.2,0.7-0.6,1-1.2,1c-0.8,0-1.9-0.9-1.9-1.8c0-0.6,0.6-1.1,1.4-1.7c1.2-0.9,4-2.5,6.5-3c1.3,0,2.6,0.4,3.5,1.2
		c1.5,1.2,1.9,3,1.9,5.2v8c0,1.9,0.8,2.6,1.5,2.6c0.5,0,1.1-0.2,1.5-0.5l0.4,1.1L-62.8,410z M-66,399.1c-0.9,0.5-3,1.4-3.9,1.8
		c-1.7,0.8-2.6,1.6-2.6,3.1c0,2.2,1.7,3.3,3,3.3c1.1,0,2.6-0.8,3.4-1.6V399.1z"/>
	<path class="st0" d="M-42.7,409.5c-2-2.2-4.7-5.6-7.1-8.5c-0.6-0.7-0.9-0.9-1.3-0.9c-0.2,0-0.4,0-0.7,0.1v4.8
		c0,2.8,0.4,3.1,3.1,3.4v1.1h-9.6v-1.1c2.9-0.3,3.1-0.6,3.1-3.4v-20.3c0-2.8-0.2-3.1-2.8-3.3v-1c2.1-0.2,4.5-0.9,6.2-1.5v20.3
		c1.3-0.3,2.1-0.8,2.7-1.5c1-1,2.2-2.6,3.1-3.8c0.9-1.3,0.7-1.7-1.3-1.9v-1.1l8.8-0.4v1.1c-3,0.5-3.9,1-5.6,2.5
		c-1.1,1.1-1.8,1.9-3.7,4.1c0.9,1.3,5.2,6.4,6.7,7.9c1.6,1.6,2.7,2.3,4.3,2.4v1.1L-42.7,409.5z"/>
	<path class="st0" d="M-36.9,409.4v-1.1c2.7-0.3,3-0.5,3-3.4V396c0-2.6-0.1-2.8-2.7-3.2v-1c2.2-0.3,4.2-0.9,6.1-1.7v14.8
		c0,2.9,0.3,3.2,3.1,3.4v1.1H-36.9z M-34.6,384.2c0-1.3,1-2.2,2.2-2.2c1.2,0,2.1,1,2.1,2.2c0,1.2-0.9,2.2-2.2,2.2
		C-33.6,386.4-34.6,385.4-34.6,384.2"/>
	<path class="st0" d="M-13.2,409.4v-1.1c2.5-0.3,2.8-0.6,2.8-3.6v-7.2c0-3-1-4.9-3.9-4.9c-1.7,0-3.4,1.1-4.7,2.2V405
		c0,2.9,0.3,3.1,2.8,3.4v1.1h-9.3v-1.1c2.9-0.3,3.1-0.5,3.1-3.4v-8.9c0-2.8-0.3-2.9-2.6-3.3v-1c2.1-0.4,4.1-0.9,6-1.8v3.4
		c0.9-0.7,1.8-1.3,2.9-2c1.2-0.8,2.3-1.3,3.6-1.3c3.4,0,5.5,2.4,5.5,6.5v8.3c0,2.9,0.2,3.1,2.7,3.4v1.1H-13.2z"/>
	<path class="st0" d="M16.1,390.9c-0.4,0.7-1.3,1.8-1.9,2.2l-2.4-0.1c0.8,1,1.3,2.3,1.3,3.8c0,4.6-3.9,6.9-7.5,6.9
		c-0.7,0-1.5-0.1-2.2-0.2c-0.6,0.4-1.3,1.2-1.3,1.8c0,0.9,0.8,1.7,2.7,1.7c1.5,0,3.1,0,4.5,0c2.7,0,6.2,0.9,6.2,5.1
		c0,4.3-5,8.5-10.8,8.5c-4.8,0-7.4-2.8-7.4-5.2c0-0.9,0.4-1.8,1-2.4c0.9-0.9,2.5-2.2,3.6-3c-1.6-0.5-2.6-1.5-3.2-2.4
		c-0.4-0.6-0.5-1.4-0.5-1.8c1.7-0.7,3.1-1.8,3.8-2.6c-1.9-0.8-3.8-2.8-3.8-5.8c0-4.9,4.4-7.1,7.7-7.1h0c1.5,0,2.9,0.4,4.1,1.1
		c2.1-0.1,4.3-0.4,5.8-0.6L16.1,390.9z M6.4,409.9c-2,0-3,0.3-3.7,0.9c-1.1,0.9-2,2.1-2,3.3c0,2.3,2.5,4.1,5.7,4.1
		c4.1,0,6.2-2.1,6.2-4.8c0-1.5-0.7-2.5-2-3.1C9.5,410,8.2,409.9,6.4,409.9L6.4,409.9z M5.4,391.4c-1.8,0-3.5,1.8-3.5,5.2
		c0,3.3,1.6,5.8,4,5.8c1.9,0,3.6-1.7,3.6-5.1C9.5,393.8,7.9,391.4,5.4,391.4L5.4,391.4z"/>
	<path class="st0" d="M53.6,402.3c-0.6,2-1.7,5.2-2.4,6.6c-1.2,0.3-4.8,1.2-7.9,1.2c-10.7,0-15.4-7.4-15.4-14.2c0-9,7-15,16.6-15
		c3.5,0,6.4,0.9,7.6,1.2c0.3,2.5,0.6,4.2,0.9,6.5l-1.3,0.3c-1.1-4.6-3.7-6.4-8.3-6.4c-7.2,0-11,6.1-11,12.6c0,8,4.7,13.5,11.3,13.5
		c4.4,0,6.7-2.4,8.9-6.7L53.6,402.3z"/>
	<path class="st0" d="M69.4,410c-0.6,0-1.6-0.4-2-0.8c-0.6-0.6-0.8-1.2-1-1.9c-1.7,1.2-3.8,2.7-5.1,2.7c-3.1,0-5.2-2.5-5.2-5.2
		c0-2.1,1.1-3.4,3.5-4.3c2.6-0.9,5.7-2,6.7-2.8v-0.8c0-3.1-1.5-4.9-3.6-4.9c-0.9,0-1.5,0.4-1.9,0.9c-0.6,0.6-1,1.5-1.3,2.8
		c-0.2,0.7-0.6,1-1.3,1c-0.8,0-1.9-0.9-1.9-1.8c0-0.6,0.6-1.1,1.4-1.7c1.2-0.9,4-2.5,6.4-3c1.3,0,2.6,0.4,3.5,1.2
		c1.5,1.2,1.9,3,1.9,5.2v8c0,1.9,0.8,2.6,1.5,2.6c0.5,0,1.1-0.2,1.5-0.5l0.4,1.1L69.4,410z M66.3,399.1c-0.9,0.5-3,1.4-3.9,1.8
		c-1.7,0.8-2.6,1.6-2.6,3.1c0,2.2,1.7,3.3,3.1,3.3c1.1,0,2.6-0.8,3.4-1.6V399.1z"/>
	<path class="st0" d="M86.1,409.4v-1.1c2.5-0.3,2.8-0.6,2.8-3.6v-7.2c0-3-1-4.9-3.9-4.9c-1.7,0-3.4,1.1-4.7,2.2V405
		c0,2.9,0.3,3.1,2.8,3.4v1.1h-9.3v-1.1c2.9-0.3,3.1-0.5,3.1-3.4v-8.9c0-2.8-0.3-2.9-2.6-3.3v-1c2.1-0.4,4.1-0.9,6-1.8v3.4
		c0.9-0.7,1.8-1.3,2.9-2c1.2-0.8,2.3-1.3,3.6-1.3c3.4,0,5.5,2.4,5.5,6.5v8.3c0,2.9,0.2,3.1,2.7,3.4v1.1H86.1z"/>
	<path class="st0" d="M112.8,405.6c-1.9,2.5-4.8,4.4-7.3,4.4c-5.4,0-8.6-4.4-8.6-9c0-3.3,1.4-6.2,4.3-8.4c2.2-1.7,4.8-2.4,6.4-2.4h0
		c1.7,0,3.1,0.6,3.8,1.1c0.6,0.5,0.7,0.9,0.7,1.3c0,0.9-1,1.8-1.4,1.8c-0.2,0-0.4-0.1-0.8-0.5c-1.3-1.2-2.8-1.8-4.3-1.8
		c-2.8,0-5.3,2.4-5.3,6.9c0,6,4.1,8,6.5,8c1.8,0,3.3-0.5,5.2-2.4L112.8,405.6z"/>
	<path class="st0" d="M130.2,405.8c-2.7,3.4-5.7,4.2-7,4.2c-5.3,0-8.4-4.3-8.4-9.2c0-3,1.1-5.6,2.8-7.5c1.8-2,4.1-3.1,6.3-3.1h0
		c3.6,0,6.4,3.2,6.4,6.5c0,0.9-0.2,1.2-1,1.4c-0.7,0.1-6.1,0.6-11.2,0.7c0,5.8,3.4,8.3,6.4,8.3c1.7,0,3.4-0.7,4.9-2.1L130.2,405.8z
		 M122.9,391.7c-1.9,0-3.8,1.8-4.5,5.3c2.4,0,4.8,0,7.3-0.1c0.8,0,1-0.3,1-0.9C126.8,393.8,125.3,391.7,122.9,391.7L122.9,391.7z"/>
	<path class="st0" d="M139.4,394.7c1.3-2.2,3.1-4.6,5.2-4.6c1.5,0,2.5,1.1,2.5,2.1c0,0.9-0.6,1.7-1.4,2.1c-0.5,0.2-0.9,0.2-1.2-0.1
		c-0.6-0.7-1.1-0.9-1.8-0.9c-1.1,0-2.5,1.3-3.4,3.7v7.9c0,2.8,0.2,3.1,3.5,3.3v1.1h-9.9v-1.1c2.7-0.3,3-0.5,3-3.3v-8.9
		c0-2.8-0.2-3-2.7-3.4v-0.9c2.1-0.3,4-0.9,6.1-1.8L139.4,394.7L139.4,394.7z"/>
	<path class="st0" d="M188.6,382.7c-3.5,0.3-3.9,0.5-3.9,4.1v17.4c0,3.6,0.3,3.8,3.8,4.1v1.2H177v-1.2c3.7-0.3,4-0.5,4-4.1v-8.6
		h-14.7v8.6c0,3.6,0.4,3.8,3.9,4.1v1.2h-11.3v-1.2c3.4-0.3,3.8-0.5,3.8-4.1v-17.4c0-3.6-0.4-3.8-3.9-4.1v-1.2H170v1.2
		c-3.3,0.3-3.6,0.5-3.6,4.1v7H181v-7c0-3.6-0.3-3.8-3.7-4.1v-1.2h11.2V382.7z"/>
	<path class="st0" d="M190.6,409.4v-1.1c2.7-0.3,3-0.5,3-3.4V396c0-2.6-0.1-2.8-2.7-3.2v-1c2.2-0.3,4.2-0.9,6.1-1.7v14.8
		c0,2.9,0.3,3.2,3.1,3.4v1.1H190.6z M192.9,384.2c0-1.3,1-2.2,2.2-2.2c1.2,0,2.1,1,2.1,2.2c0,1.2-1,2.2-2.2,2.2
		C193.9,386.4,192.9,385.4,192.9,384.2"/>
	<path class="st0" d="M213.1,395.7c-0.8-2.5-2.3-4.3-4.4-4.3c-1.6,0-2.8,1.3-2.8,3c0,1.9,1.7,2.9,3.7,3.7c3.2,1.3,5.4,2.9,5.4,5.8
		c0,3.9-3.7,5.9-7.1,5.9c-2.2,0-4.2-0.8-4.9-1.5c-0.3-0.6-0.7-3.5-0.7-5.1l1.1-0.2c0.8,2.8,2.7,5.3,5.3,5.3c1.6,0,3.1-1.2,3.1-3
		c0-1.9-1.3-2.9-3.4-3.9c-2.6-1.2-5.4-2.6-5.4-5.9c0-3,2.6-5.5,6.5-5.5c1.8,0,2.9,0.4,3.8,0.7c0.3,1,0.8,3.5,0.9,4.6L213.1,395.7z"
		/>
	<path class="st0" d="M225.9,409.4c-0.7,0.4-1.4,0.6-1.8,0.6c-2.7,0-4.2-1.7-4.2-5.1v-12.5h-3l-0.2-0.4l1.2-1.2h2v-3.1l2.8-2.8
		l0.6,0.1v5.9h4.9c0.4,0.4,0.3,1.4-0.3,1.7h-4.6v11.1c0,3.5,1.4,4.1,2.5,4.1c1.1,0,2.1-0.4,2.7-0.7l0.4,1.1L225.9,409.4z"/>
	<path class="st0" d="M239.7,390.1c5.3,0,9.3,4.3,9.3,9.6c0,6.9-5.1,10.2-9.3,10.2c-5.9,0-9.4-4.7-9.4-9.5
		C230.2,393.3,235.7,390.1,239.7,390.1L239.7,390.1z M239.2,391.5c-2.6,0-5,2.7-5,7.5c0,5.4,2.4,9.5,5.9,9.5c2.7,0,4.9-2,4.9-7.9
		C245,395.6,243,391.5,239.2,391.5L239.2,391.5z"/>
	<path class="st0" d="M257.9,394.7c1.3-2.2,3.1-4.6,5.2-4.6c1.5,0,2.5,1.1,2.5,2.1c0,0.9-0.6,1.7-1.4,2.1c-0.5,0.2-0.9,0.2-1.2-0.1
		c-0.6-0.7-1.1-0.9-1.8-0.9c-1.1,0-2.5,1.3-3.4,3.7v7.9c0,2.8,0.2,3.1,3.5,3.3v1.1h-9.9v-1.1c2.7-0.3,3-0.5,3-3.3v-8.9
		c0-2.8-0.2-3-2.7-3.4v-0.9c2.1-0.3,4-0.9,6.1-1.8L257.9,394.7L257.9,394.7z"/>
	<path class="st0" d="M285.7,391.7c-2.3,0.3-2.7,0.7-3.8,3.1c-1.1,2.3-2.4,5.8-5.4,12.9c-2.9,6.9-3.8,9.3-4.4,11.7
		c-0.3,0.8-0.8,1-1.4,1c-1.2,0-2.4-1-2.4-2.1c0-0.7,0.4-1.1,1.1-1.6c1.3-0.9,2.2-1.9,3.2-3.8c0.8-1.5,1.2-2.4,1.3-3
		c0.2-0.6,0.2-1.2,0-1.9c-1.7-4.9-3.7-10.1-4.9-13.2c-0.9-2.4-1.3-2.9-3.7-3.3v-1.1h8.7v1.1c-2,0.3-2.2,0.8-1.6,2.4l3.9,10.8
		c1.2-2.9,3.1-8,4-10.7c0.5-1.6,0.2-2.1-2.2-2.4v-1.1h7.8V391.7z"/>
	<path class="st0" d="M285.2,384.7c0-2.7,2.3-5,5-5c2.8,0,5,2.3,5,5c0,2.8-2.2,5-5,5C287.4,389.7,285.2,387.4,285.2,384.7
		 M294.4,384.7c0-2.4-1.8-4.2-4.2-4.2c-2.5,0-4.2,1.8-4.2,4.2c0,2.5,1.8,4.2,4.2,4.2C292.7,388.9,294.4,387.1,294.4,384.7
		 M289.1,387.5h-0.7v-5.7h2.5c1.5,0,2,0.6,2,1.6c0,1.1-0.8,1.5-1.8,1.6l1.7,2.5h-0.8l-1.6-2.5h-1.2V387.5z M290.1,384.3
		c0.8,0,1.9,0.1,1.9-1c0-0.8-0.7-0.9-1.4-0.9h-1.6v1.9H290.1z"/>
</g>
</svg>
